# This file uses centimeters as units for non-parametric coordinates.

mtllib newProjection.mtl
g default
v -0.472703 2.073623 1.739960
v -0.945312 2.073623 1.267353
v 0.472703 2.073623 1.739960
v 0.945312 2.073623 1.267353
v 0.945312 2.073623 -1.267353
v 0.472703 2.073623 -1.739960
v -0.472703 2.073623 -1.739960
v -0.945312 2.073623 -1.267353
v 0.476725 2.072680 -0.454436
v 0.021123 2.072680 -0.454436
v 0.476725 2.072680 -1.065247
v 0.021123 2.072680 -1.065247
v 0.289653 2.397191 -0.705238
v 0.208195 2.397191 -0.705238
v 0.289653 2.397191 -0.814445
v 0.208195 2.397191 -0.814445
v 0.268812 2.085911 -0.216947
v 0.172842 2.085911 -0.211732
v 0.261637 2.085749 -0.368631
v 0.183603 2.085749 -0.368631
v 0.228152 2.198948 -0.279058
v 0.213498 2.198948 -0.278262
v 0.227056 2.198915 -0.302220
v 0.215142 2.198915 -0.302220
vt 0.228353 0.135810
vt 0.364163 0.000000
vt 0.635837 0.000000
vt 0.771647 0.135810
vt 0.228353 0.864190
vt 0.771647 0.864190
vt 0.635837 1.000000
vt 0.364163 1.000000
vt 0.559828 0.702659
vt 0.583236 0.702659
vt 0.583236 0.734041
vt 0.559828 0.734041
vt 0.561352 0.579962
vt 0.565562 0.580191
vt 0.565248 0.586847
vt 0.561824 0.586847
vt 0.636993 0.806112
vt 0.636993 0.630588
vt 0.506070 0.806112
vt 0.506070 0.630588
vt 0.577247 0.562342
vt 0.549668 0.560844
vt 0.575185 0.605931
vt 0.552761 0.605931
vn 0.000000 1.000000 0.000000
vn 0.000000 1.000000 0.000000
vn 0.000000 1.000000 0.000000
vn 0.000000 1.000000 0.000000
vn 0.000000 1.000000 0.000000
vn 0.000000 1.000000 0.000000
vn 0.000000 1.000000 0.000000
vn 0.000000 1.000000 0.000000
vn 0.000000 1.000000 0.000000
vn 0.000000 1.000000 0.000000
vn 0.000000 1.000000 0.000000
vn 0.000000 1.000000 0.000000
vn -0.000041 0.999999 -0.001375
vn -0.000041 0.999999 -0.001375
vn -0.000041 0.999999 -0.001375
vn -0.000041 0.999999 -0.001375
vn -0.002014 0.999998 0.000000
vn -0.002014 0.999998 0.000000
vn -0.002014 0.999998 0.000000
vn -0.002014 0.999998 0.000000
vn 0.000000 0.999989 0.004670
vn 0.000000 0.999989 0.004670
vn 0.000000 0.999989 0.004670
vn 0.000000 0.999989 0.004670
vn 0.000976 1.000000 0.000000
vn 0.000976 1.000000 0.000000
vn 0.000976 1.000000 0.000000
vn 0.000976 1.000000 0.000000
vn 0.000000 0.611512 0.791235
vn 0.000000 0.611512 0.791235
vn 0.000000 0.611512 0.791235
vn 0.000000 0.611512 0.791235
vn 0.866354 0.499430 0.000000
vn 0.866354 0.499430 0.000000
vn 0.866354 0.499430 0.000000
vn 0.866354 0.499430 0.000000
vn 0.000000 0.611513 -0.791235
vn 0.000000 0.611513 -0.791235
vn 0.000000 0.611513 -0.791235
vn 0.000000 0.611513 -0.791235
vn -0.866354 0.499430 0.000000
vn -0.866354 0.499430 0.000000
vn -0.866354 0.499430 0.000000
vn -0.866354 0.499430 0.000000
vn 0.000022 0.999966 0.008296
vn 0.000022 0.999966 0.008296
vn 0.000022 0.999966 0.008296
vn 0.000022 0.999966 0.008296
vn 0.048745 0.998727 -0.012968
vn 0.048745 0.998727 -0.012968
vn 0.048745 0.998727 -0.012968
vn 0.048745 0.998727 -0.012968
vn 0.000000 0.988598 -0.150581
vn 0.000000 0.988598 -0.150581
vn 0.000000 0.988598 -0.150581
vn 0.000000 0.988598 -0.150581
vn -0.047021 0.998580 -0.025045
vn -0.047021 0.998580 -0.025045
vn -0.047021 0.998580 -0.025045
vn -0.047021 0.998580 -0.025045
vn 0.047173 0.494011 0.868175
vn 0.047173 0.494011 0.868175
vn 0.047173 0.494011 0.868175
vn 0.047173 0.494011 0.868175
vn 0.947659 0.316073 -0.045175
vn 0.947659 0.316073 -0.045175
vn 0.947659 0.316073 -0.045175
vn 0.947659 0.316073 -0.045175
vn 0.000000 0.506133 -0.862455
vn 0.000000 0.506133 -0.862456
vn 0.000000 0.506133 -0.862455
vn 0.000000 0.506133 -0.862455
vn -0.950619 0.303363 -0.065527
vn -0.950619 0.303363 -0.065527
vn -0.950619 0.303363 -0.065527
vn -0.950619 0.303363 -0.065527
s off
g polySurface1 pasted__pCube1
usemtl initialShadingGroup
f 2/1/1 1/2/2 3/3/3 4/4/4
f 8/5/5 5/6/6 6/7/7 7/8/8
f 14/9/9 13/10/10 15/11/11 16/12/12
f 22/13/13 21/14/14 23/15/15 24/16/16
f 4/4/17 5/6/18 11/17/19 9/18/20
f 5/6/21 8/5/22 12/19/23 11/17/24
f 8/5/25 2/1/26 10/20/27 12/19/28
f 10/20/29 9/18/30 13/10/31 14/9/32
f 9/18/33 11/17/34 15/11/35 13/10/36
f 11/17/37 12/19/38 16/12/39 15/11/40
f 12/19/41 10/20/42 14/9/43 16/12/44
f 2/1/45 4/4/46 17/21/47 18/22/48
f 4/4/49 9/18/50 19/23/51 17/21/52
f 9/18/53 10/20/54 20/24/55 19/23/56
f 10/20/57 2/1/58 18/22/59 20/24/60
f 18/22/61 17/21/62 21/14/63 22/13/64
f 17/21/65 19/23/66 23/15/67 21/14/68
f 19/23/69 20/24/70 24/16/71 23/15/72
f 20/24/73 18/22/74 22/13/75 24/16/76
